#define bullet_width 6
#define bullet_height 9
static char bullet_bits[] = {
  0x00,
  0x02,
  0x06,
  0x0E,
  0x1E,
  0x0E,
  0x06,
  0x02,
  0x00,
};
