#define close_disabled_width 16
#define close_disabled_height 16
static char close_disabled_bits[] = {
  0x00, 0x00,
  0x00, 0x00,
  0xc0, 0x03,
  0xf0, 0x0f,
  0x38, 0x1c,
  0x18, 0x18,
  0x0c, 0x30,
  0x0c, 0x30,
  0x0c, 0x30,
  0x0c, 0x30,
  0x18, 0x18,
  0x38, 0x1c,
  0xf0, 0x0f,
  0xc0, 0x03,
  0x00, 0x00,
  0x00, 0x00
};
