#define desk_toggled_width 16
#define desk_toggled_height 16
static char desk_toggled_bits[] = {
  0x00, 0x00,
  0x00, 0x00,
  0x00, 0x01,
  0x00, 0x03,
  0x00, 0x3F,
  0x00, 0x3F,
  0xF0, 0x3F,
  0xF0, 0x3F,
  0x00, 0x3F,
  0x00, 0x3F,
  0x00, 0x03,
  0x00, 0x01, 
  0x00, 0x00,
  0x00, 0x00,
  0x00, 0x00,
  0x00, 0x00,
};
