#define desk_width 16
#define desk_height 16
static char desk_bits[] = {
  0x00, 0x00,
  0x00, 0x00,
  0x20, 0x00,
  0x70, 0x00,
  0xF8, 0x00,
  0xFC, 0x0F, 
  0xF8, 0x0F,
  0xF0, 0x07,
  0xE0, 0x03,
  0xE0, 0x03,
  0xE0, 0x04,
  0x60, 0x08, 
  0x00, 0x10,
  0x00, 0x20,
  0x00, 0x00,
  0x00, 0x00,
};
