#define iconify_disabled_width 16
#define iconify_disabled_height 16
static char iconify_disabled_bits[] = {
  0x00, 0x00,
  0x00, 0x00,
  0x00, 0x00,
  0x00, 0x00,
  0x00, 0x00,
  0x80, 0x01, 
  0x80, 0x01,
  0x80, 0x01,
  0x80, 0x01,
  0x80, 0x01,
  0x80, 0x01,
  0x00, 0x00, 
  0x00, 0x00,
  0x00, 0x00,
  0x00, 0x00,
  0x00, 0x00,
};
