#define max_width 16
#define max_height 16
static char max_bits[] = {
  0x00, 0x00,
  0x00, 0x00,
  0x00, 0x00,
  0x00, 0x00,
  0xF0, 0x0F,
  0xF0, 0x0F,
  0x30, 0x0C,
  0x30, 0x0C,
  0x30, 0x0C,
  0x30, 0x0C,
  0xF0, 0x0F,
  0xF0, 0x0F,
  0x00, 0x00,
  0x00, 0x00,
  0x00, 0x00,
  0x00, 0x00,
};
