#define max_disabled_width 16
#define max_disabled_height 16
static char max_disabled_bits[] = {
  0x00, 0x00,
  0x00, 0x00,
  0x00, 0x00,
  0x78, 0x1E,
  0x78, 0x1E,
  0x78, 0x1E,
  0x78, 0x1E,
  0x00, 0x00,
  0x00, 0x00,
  0x78, 0x1E,
  0x78, 0x1E,
  0x78, 0x1E,
  0x78, 0x1E,
  0x00, 0x00,
  0x00, 0x00,
  0x00, 0x00,
};
