#define max_toggled_width 16
#define max_toggled_height 16
static char max_toggled_bits[] = {
  0x00, 0x00,
  0x00, 0x00,
  0x00, 0x00,
  0xE0, 0x1F,
  0xE0, 0x1F,
  0xF8, 0x1F,
  0x08, 0x1C,
  0x08, 0x1C,
  0x08, 0x1C,
  0x08, 0x1C,
  0x08, 0x1C,
  0x08, 0x04,
  0xF8, 0x07,
  0x00, 0x00,
  0x00, 0x00,
  0x00, 0x00,
};
